<svg id="Layer_1" data-name="Layer 1" xmlns="http://www.w3.org/2000/svg" viewBox="0 0 1043.62 470.74"><path d="M157.3,588.41c-7.35-18.73-4-27.83-3.72-31a54.6,54.6,0,0,1-6.36,4c-11.84,4.65-20.82,1.6-24.82-8.59-6.06-15.43,10.33-29.65,28.46-36.77,11.69-4.59,45.77-13.81,54.07,7.32,4.47,11.39-8.91,22.69-18.47,22.12,7.24,3,26.6,20.17,33.36,37.41,5.47,13.93,1.24,29.6-15.39,36.13C174.31,630.86,160.54,596.66,157.3,588.41Zm31.53-67.72c-1.77-4.49-15.66-5.09-31.87-.11,19.88-4,26.91,4.65,31.25,2.95C189.11,523.17,189.3,521.89,188.83,520.69Z" transform="translate(-120.62 -159.24)" style="fill:#ff00d0;stroke:#fff;stroke-miterlimit:10"/><path d="M282.53,570.39c1.76,9.33-1.65,20-10.94,23.66-15.89,6.24-33.35-7-48.49-42-18-41.53-18.15-56.36-5.11-61.47,8.39-3.3,15-.54,24.78,10.68l4.34-1.71c-3.41-9.56-2-17.53,7.1-21.12C268.9,472.66,288,481.6,311,534.84c9.58,22.19,10,36-4.39,41.68-11.09,4.35-15.83-2.44-19.83-7.78Zm-51.69-74.84c-1-2-6.41-2.67-12.58-.77,7.63-1.26,10.9,2.64,12.55,2C231.25,496.6,231.08,496.15,230.84,495.55Zm39.89-9.43c-1.68-3.84-9.38-5.83-17.44-3.88,10-.62,15.5,6.89,17.6,6.06C271.19,488.19,271.14,487.17,270.73,486.12Z" transform="translate(-120.62 -159.24)" style="fill:#ff00d0;stroke:#fff;stroke-miterlimit:10"/><path d="M373.61,512.49c7.08-4.85,20-8.18,25.25,6.18,6,15.64-21.77,33.1-29.26,36-31.62,12.41-58.68-38.88-67.79-63-8.58-22.74,1.52-32.25,20.86-39.84,15.28-6,32.55-9.14,36.61,1.2,4.59,11.69-5.42,16.14-12.54,20.49l.3.75c17.33-7.85,31-4.38,36.41,9.92,3.08,8.3.87,17.64-10.55,26.45Zm-24.86-58.9c-.94-2.4-7.33-2.83-14.46-.72,8.65-1.32,12.39,2.92,14.19,2.21C348.93,454.9,349.05,454.34,348.75,453.59Zm18.14,29c.6-.23.61-1.1.2-2.15-1.3-3.29-9.72-4.48-18.77-2C359.52,477,364.65,483.5,366.89,482.61Zm22.34,36.2c.45-.17.58-.74.28-1.49-.94-2.4-7.33-2.83-14.46-.72C383.69,515.28,387.44,519.52,389.23,518.81Z" transform="translate(-120.62 -159.24)" style="fill:#ff00d0;stroke:#fff;stroke-miterlimit:10"/><path d="M426.78,453.22c-4.94-12.58-10.06-39.29,9.28-46.88C463.63,395.52,481.89,424,490.54,446a106,106,0,0,1,4.88,17.28c3-3.93,16.71-9,22,4.51,5.76,14.68-3,34.57-19.67,41.1C462.09,522.9,438.26,482.45,426.78,453.22Zm35.13-37c-2.23-5.7-12.71-9-23.93-6.34,14.23-.75,21.15,10.71,24,9.6C462.58,419.28,462.56,417.91,461.91,416.26Zm45.54,49.92c.33-.48-.05-1-.8-1.59-2.44-1.81-8.12-.44-12.55,3.72C500.41,464.1,506.49,467.25,507.45,466.18Z" transform="translate(-120.62 -159.24)" style="fill:#ff00d0;stroke:#fff;stroke-miterlimit:10"/><path d="M571.42,434.84c7.09-4.86,20-8.18,25.25,6.17,6,15.65-21.77,33.11-29.26,36.05-31.62,12.41-58.67-38.89-67.79-63-8.58-22.75,1.53-32.25,20.86-39.84,15.28-6,32.55-9.15,36.61,1.2,4.59,11.68-5.42,16.13-12.54,20.48l.3.75c17.33-7.84,31-4.37,36.41,9.92,3.08,8.3.87,17.65-10.55,26.45Zm-24.85-58.9c-1-2.4-7.34-2.83-14.47-.73,8.65-1.32,12.39,2.92,14.19,2.22C546.74,377.25,546.86,376.68,546.57,375.94Zm18.14,29c.6-.23.6-1.1.19-2.15-1.29-3.3-9.72-4.49-18.76-2C557.33,399.38,562.46,405.84,564.71,405Zm22.34,36.2c.45-.18.57-.74.27-1.49-.94-2.4-7.33-2.83-14.46-.72C581.51,437.63,585.25,441.87,587.05,441.16Z" transform="translate(-120.62 -159.24)" style="fill:#ff00d0;stroke:#fff;stroke-miterlimit:10"/><path d="M631.19,377.83c15.15-8.55,31.5-2.16,40.08,19.71,7.59,19.34,3.92,36.86-17.66,45.33-42,16.48-61.4-28.64-70.64-52.17-11.06-28.18-3.17-46,15.86-53.44,14.54-5.71,34.55,1.65,39.79,15,5.06,12.89-1.89,20.29-7.81,25Zm-11-34.1c-1.35-3.44-10.17-4.31-19.81-1.56,11.94-1.75,17.07,4.71,19.62,3.71C620.63,345.65,620.64,344.78,620.23,343.73Zm-13.14,34.39c-.3.12-.27.62,0,1.37.83,2.1,4.91,3.26,9,2.33C610.92,382.15,608,377.76,607.09,378.12Zm15.19-4.06c-1-2.55-5.65-4.7-8.8-3.46-2.1.82-3.31,3-2.6,4.82a6.55,6.55,0,0,0,8.38,3.29C622.25,377.53,622.86,375.56,622.28,374.06Zm-3.48,20.22c-.45.18-.37.83,0,1.73,1.11,2.85,6.75,4.44,12.59,3C624,399.51,620.15,393.75,618.8,394.28Zm15-4c-1-2.55-5.65-4.7-8.8-3.47-2.09.83-3.3,3-2.6,4.83a6.55,6.55,0,0,0,8.38,3.28C633.81,393.75,634.42,391.78,633.83,390.28Zm20.5-3.73c.6-.23.55-1.25.08-2.45-1.59-4-10.16-6-19.26-3.68C646.52,379.42,652.09,387.44,654.33,386.55Z" transform="translate(-120.62 -159.24)" style="fill:#ff00d0;stroke:#fff;stroke-miterlimit:10"/><path d="M716.94,376.85a115.11,115.11,0,0,1,5.6,11.64c3.36,8.54,6.28,23.48-3.16,27.18-25.63,10.06-44.94-26.8-51.89-44.49-8.47-21.58-14.06-48.61,16.06-60.43,29.22-11.48,46.91-5.62,54.91,14.76,5.18,13.19-1,22.18-7.42,28.68l.36.9c13.08-3.23,28.57,6.25,34.22,20.64,4.88,12.44-1.06,20.65-10.21,24.24-16.93,6.65-28.17-11.42-37.57-23.47Zm-2.55-60.23c1.05-.41,1.36-1.39.89-2.59-1.53-3.9-15.29-3.69-31.58,1.5C703.55,311,710.05,318.33,714.39,316.62Zm3,46.39c-8.43.55-12.81-6.21-14.31-5.62-.6.24-.45,1,0,2.09C704.32,362.78,710.74,364.58,717.38,363Zm1.48-10.78c-1-2.55-5.65-4.7-8.8-3.46-1.8.7-3.48,2.57-2.6,4.82a6.54,6.54,0,0,0,8.38,3.28C718.84,355.7,719.45,353.73,718.86,352.23Zm26.7,13.39c.45-.18.46-1.05.1-1.95-1.35-3.44-8.37-5-16.21-3C739.23,359.63,743.61,366.38,745.56,365.62Z" transform="translate(-120.62 -159.24)" style="fill:#ff00d0;stroke:#fff;stroke-miterlimit:10"/><path d="M753.91,331.38c-7.35-18.73-4.36-47.24,16-55.24,32.07-12.59,59.94,10.38,69.76,35.4,5.65,14.39,13.84,52-15.83,63.64C791.94,387.71,766.5,363.45,753.91,331.38Zm50.26-46.88c-2.18-5.55-17.09-7-34.16-2,21.07-3.6,29.13,7.24,33.63,5.48C804.69,287.58,804.82,286.14,804.17,284.5Zm-1.74,52.39c-8.44.55-12.82-6.21-14.32-5.62-.6.24-.45,1,0,2.09C789.36,336.66,795.78,338.47,802.43,336.89Zm1.47-10.78c-1-2.55-5.65-4.7-8.8-3.46-1.79.7-3.48,2.57-2.6,4.82a6.54,6.54,0,0,0,8.38,3.28C803.88,329.58,804.49,327.61,803.9,326.11Z" transform="translate(-120.62 -159.24)" style="fill:#ff00d0;stroke:#fff;stroke-miterlimit:10"/><path d="M889.36,324.39c3.34,5.43,12,22.26-1.17,27.44-17.23,6.76-33.1-17.8-47.92-55.56-4.83-12.29-15.56-40.94-1-46.65,18-7.06,32,5.41,41.58,15.16l.75-.29c-6.85-9.08-16.48-27.44-2.24-33,23.53-9.23,52,45.81,58.47,62.15C944.63,311,944,329.07,926,336.13S898.6,332.52,890.4,324Zm-30.92-68.63c-1.53-3.9-9.89-5.81-19.3-3.33,11.61-1.27,16.76,6.57,19.16,5.63C858.75,257.88,858.91,257,858.44,255.76Zm38-16.47c-1.47-3.75-8-6.21-15-4.67,8.76-.15,13.35,7.56,15.14,6.85C896.88,241.35,896.89,240.49,896.42,239.29Z" transform="translate(-120.62 -159.24)" style="fill:#ff00d0;stroke:#fff;stroke-miterlimit:10"/><path d="M994,243.36c-6.59,7.43-20.27,10-24.39-.46-8.18-20.83,3.52-44.79,24-52.85,22.93-9,50.38,35.39,56.92,52,8.76,22.32,12.94,41.78-4.59,48.67C1015.12,302.87,1003.05,263.32,994,243.36Zm16.94-43.66c-1.53-3.9-9.09-5.95-17.14-4,10-.62,15.2,7,17.3,6.18C1011.4,201.76,1011.35,200.74,1010.94,199.7Z" transform="translate(-120.62 -159.24)" style="fill:#ff00d0;stroke:#fff;stroke-miterlimit:10"/><path d="M1068.18,214.24c-6.59,7.43-20.27,10-24.39-.46-8.18-20.83,3.52-44.79,24-52.85,22.93-9,50.38,35.39,56.91,52,8.77,22.33,13,41.78-4.58,48.67C1089.29,273.75,1077.23,234.2,1068.18,214.24Zm16.93-43.66c-1.53-3.9-9.08-6-17.13-4,10-.62,15.2,7,17.3,6.18C1085.58,172.64,1085.53,171.62,1085.11,170.58Z" transform="translate(-120.62 -159.24)" style="fill:#ff00d0;stroke:#fff;stroke-miterlimit:10"/><path d="M188.71,596.4c-7.35-18.74-4-27.83-3.71-31.06-1.23.83-4.87,3.47-6.37,4-11.84,4.65-20.81,1.61-24.82-8.59-6.05-15.43,10.33-29.65,28.46-36.76,11.69-4.59,45.77-13.82,54.07,7.31,4.47,11.39-8.91,22.69-18.47,22.12,7.25,3,26.6,20.17,33.36,37.41,5.48,13.94,1.25,29.6-15.39,36.13C205.72,638.84,192,604.64,188.71,596.4Zm31.53-67.73c-1.76-4.49-15.66-5.09-31.87-.11,19.88-4,26.91,4.66,31.26,3C220.53,531.16,220.71,529.87,220.24,528.67Z" transform="translate(-120.62 -159.24)" style="fill:red;stroke:#fff;stroke-miterlimit:10"/><path d="M314,578.37c1.76,9.34-1.66,20-10.95,23.66-15.88,6.24-33.35-7-48.49-42-18-41.53-18.14-56.35-5.11-61.47,8.39-3.3,15-.53,24.78,10.68l4.34-1.71c-3.4-9.56-2-17.53,7.11-21.12,14.68-5.76,33.76,3.18,56.74,56.42,9.57,22.19,10,36-4.4,41.68-11.09,4.35-15.83-2.43-19.83-7.78Zm-51.69-74.84c-1-2-6.41-2.67-12.59-.77,7.64-1.26,10.9,2.65,12.55,2C262.67,504.58,262.49,504.13,262.26,503.53Zm39.88-9.43c-1.68-3.83-9.38-5.83-17.43-3.88,10-.62,15.5,6.89,17.59,6.07C302.6,496.17,302.55,495.15,302.14,494.1Z" transform="translate(-120.62 -159.24)" style="fill:red;stroke:#fff;stroke-miterlimit:10"/><path d="M405,520.48c7.09-4.86,20-8.19,25.25,6.17,6,15.64-21.76,33.1-29.26,36-31.62,12.42-58.67-38.88-67.79-63-8.58-22.74,1.53-32.24,20.86-39.83,15.28-6,32.56-9.15,36.61,1.19,4.59,11.69-5.42,16.14-12.53,20.49l.29.75c17.33-7.84,31-4.38,36.41,9.92,3.09,8.3.87,17.64-10.54,26.45Zm-24.85-58.91c-.94-2.4-7.34-2.83-14.47-.72,8.65-1.32,12.39,2.92,14.19,2.21C380.34,462.89,380.46,462.32,380.17,461.57Zm18.14,29c.6-.24.6-1.11.19-2.16-1.29-3.29-9.72-4.48-18.76-2C390.93,485,396.06,491.48,398.31,490.6Zm22.34,36.2c.45-.18.57-.75.28-1.5-.95-2.4-7.34-2.83-14.47-.72C415.11,523.26,418.85,527.5,420.65,526.8Z" transform="translate(-120.62 -159.24)" style="fill:red;stroke:#fff;stroke-miterlimit:10"/><path d="M458.2,461.21c-4.94-12.59-10.06-39.29,9.27-46.88C495,403.5,513.31,432,522,454a106.58,106.58,0,0,1,4.89,17.28c2.95-3.92,16.71-9,22,4.51,5.77,14.69-3,34.57-19.67,41.1C493.51,530.88,469.67,490.43,458.2,461.21Zm35.13-37c-2.24-5.7-12.71-9-23.94-6.34,14.23-.75,21.16,10.72,24,9.6C494,427.26,494,425.89,493.33,424.24Zm45.54,49.92c.33-.48-.06-1-.8-1.59-2.44-1.81-8.13-.44-12.55,3.72C531.82,472.08,537.9,475.23,538.87,474.16Z" transform="translate(-120.62 -159.24)" style="fill:red;stroke:#fff;stroke-miterlimit:10"/><path d="M602.83,442.82c7.09-4.85,20-8.18,25.26,6.17,6,15.65-21.77,33.11-29.26,36.05-31.63,12.41-58.68-38.88-67.79-63-8.59-22.74,1.52-32.25,20.85-39.84,15.29-6,32.56-9.14,36.62,1.2,4.59,11.69-5.43,16.13-12.54,20.48l.29.75c17.33-7.84,31-4.37,36.41,9.92,3.09,8.31.87,17.65-10.54,26.45ZM578,383.92c-.94-2.4-7.34-2.83-14.47-.72,8.65-1.32,12.39,2.92,14.19,2.21C578.15,385.23,578.27,384.67,578,383.92Zm18.14,29c.6-.23.61-1.1.19-2.15-1.29-3.29-9.71-4.49-18.76-2C588.74,407.36,593.87,413.83,596.12,412.94Zm22.34,36.2c.45-.17.57-.74.28-1.49-.94-2.4-7.34-2.83-14.47-.72C612.92,445.61,616.66,449.85,618.46,449.14Z" transform="translate(-120.62 -159.24)" style="fill:red;stroke:#fff;stroke-miterlimit:10"/><path d="M662.6,385.81c15.16-8.55,31.5-2.16,40.09,19.72,7.59,19.33,3.92,36.85-17.66,45.33-42,16.47-61.41-28.65-70.64-52.18-11.06-28.17-3.18-46,15.86-53.44,14.53-5.71,34.55,1.66,39.78,15,5.06,12.89-1.89,20.29-7.81,25Zm-11-34.1c-1.35-3.44-10.16-4.31-19.81-1.56,11.94-1.75,17.07,4.72,19.62,3.72C652.05,353.63,652.05,352.76,651.64,351.71ZM638.5,386.1c-.29.12-.27.63,0,1.38.82,2.09,4.91,3.26,9,2.33C642.34,390.13,639.4,385.75,638.5,386.1ZM653.69,382c-1-2.55-5.65-4.7-8.8-3.46-2.1.82-3.31,3-2.6,4.82a6.55,6.55,0,0,0,8.38,3.29C653.67,385.51,654.28,383.54,653.69,382Zm-3.48,20.22c-.45.18-.36.83,0,1.73,1.12,2.85,6.76,4.44,12.6,3C655.38,407.5,651.56,401.73,650.21,402.26Zm15-4c-1-2.55-5.65-4.7-8.79-3.47-2.1.83-3.31,3-2.6,4.83a6.53,6.53,0,0,0,8.37,3.28C665.22,401.73,665.83,399.76,665.24,398.26Zm20.51-3.72c.6-.24.54-1.26.07-2.46-1.59-4-10.15-6-19.26-3.68C677.93,387.4,683.5,395.42,685.75,394.54Z" transform="translate(-120.62 -159.24)" style="fill:red;stroke:#fff;stroke-miterlimit:10"/><path d="M748.35,384.83A115.19,115.19,0,0,1,754,396.47c3.35,8.54,6.27,23.48-3.17,27.19-25.62,10-44.94-26.81-51.88-44.49-8.47-21.59-14.07-48.62,16.05-60.44,29.23-11.47,46.92-5.62,54.92,14.76,5.17,13.19-1,22.18-7.42,28.68l.35.9c13.09-3.23,28.57,6.26,34.22,20.64,4.88,12.44-1.06,20.65-10.2,24.24-16.94,6.65-28.18-11.42-37.58-23.47Zm-2.54-60.22c1.05-.42,1.35-1.4.88-2.6-1.53-3.89-15.28-3.68-31.58,1.5C735,319,741.46,326.31,745.81,324.61Zm3,46.38c-8.44.55-12.82-6.21-14.32-5.62-.6.24-.45,1.05,0,2.09C735.74,370.76,742.15,372.57,748.8,371Zm1.47-10.78c-1-2.55-5.65-4.7-8.79-3.46-1.8.7-3.49,2.58-2.61,4.82a6.56,6.56,0,0,0,8.38,3.29C750.25,363.68,750.86,361.71,750.27,360.21ZM777,373.6c.45-.18.46-1.05.11-2-1.36-3.44-8.37-5-16.22-3C770.64,367.61,775,374.36,777,373.6Z" transform="translate(-120.62 -159.24)" style="fill:red;stroke:#fff;stroke-miterlimit:10"/><path d="M785.32,339.36c-7.35-18.73-4.36-47.23,16-55.24,32.07-12.58,59.93,10.38,69.76,35.4,5.64,14.39,13.83,52-15.84,63.64C823.35,395.69,797.91,371.43,785.32,339.36Zm50.26-46.88c-2.17-5.55-17.08-7-34.16-2,21.07-3.6,29.14,7.25,33.63,5.48C836.1,295.56,836.23,294.12,835.58,292.48Zm-1.74,52.4c-8.43.54-12.81-6.22-14.31-5.63-.6.24-.46,1.05,0,2.09C820.78,344.64,827.19,346.45,833.84,344.88Zm1.48-10.79c-1-2.55-5.65-4.7-8.8-3.46-1.8.7-3.49,2.58-2.6,4.82a6.55,6.55,0,0,0,8.38,3.29C835.29,337.56,835.9,335.59,835.32,334.09Z" transform="translate(-120.62 -159.24)" style="fill:red;stroke:#fff;stroke-miterlimit:10"/><path d="M920.77,332.37c3.34,5.43,12,22.26-1.16,27.44-17.24,6.76-33.1-17.8-47.93-55.56-4.82-12.29-15.55-40.94-1-46.64,18-7.06,32,5.4,41.57,15.15l.75-.29c-6.85-9.08-16.47-27.43-2.24-33,23.53-9.24,52.06,45.8,58.47,62.14,6.82,17.38,6.14,35.47-11.84,42.53C939.24,351.23,930,340.5,921.82,332Zm-30.92-68.63c-1.53-3.9-9.89-5.81-19.29-3.32,11.61-1.28,16.76,6.56,19.15,5.62C890.16,265.86,890.32,264.94,889.85,263.74Zm38-16.47c-1.47-3.75-8-6.21-15-4.67,8.76-.15,13.34,7.56,15.14,6.85C928.3,249.33,928.3,248.47,927.83,247.27Z" transform="translate(-120.62 -159.24)" style="fill:red;stroke:#fff;stroke-miterlimit:10"/><path d="M1025.42,251.34c-6.6,7.43-20.28,10-24.4-.46-8.17-20.83,3.52-44.79,24-52.85,22.93-9,50.39,35.39,56.92,52,8.76,22.33,12.94,41.78-4.59,48.67C1046.53,310.85,1034.47,271.31,1025.42,251.34Zm16.93-43.66c-1.53-3.9-9.08-6-17.14-4,10-.62,15.21,7,17.3,6.18C1042.81,209.74,1042.76,208.73,1042.35,207.68Z" transform="translate(-120.62 -159.24)" style="fill:red;stroke:#fff;stroke-miterlimit:10"/><path d="M1099.6,222.22c-6.6,7.43-20.28,10-24.4-.46-8.17-20.83,3.52-44.79,24-52.85,22.93-9,50.39,35.39,56.92,52,8.76,22.33,12.94,41.79-4.59,48.67C1120.71,281.73,1108.65,242.19,1099.6,222.22Zm16.93-43.66c-1.53-3.9-9.08-5.95-17.14-4,10-.62,15.21,7,17.3,6.18C1117,180.62,1116.94,179.61,1116.53,178.56Z" transform="translate(-120.62 -159.24)" style="fill:red;stroke:#fff;stroke-miterlimit:10"/></svg>